# Exported by ObjWriter
# Vertices: 8
# Texture vertices: 24
# Normals: 12
# Polygons: 12

v -5.0 -5.0 5.0
v -5.0 5.0 5.0
v -5.0 -5.0 -5.0
v -5.0 5.0 -5.0
v 5.0 -5.0 5.0
v 5.0 5.0 5.0
v 5.0 -5.0 -5.0
v 5.0 5.0 -5.0

# Texture coordinates
vt 0.657719 0.070615
vt 0.657719 0.288779
vt 0.343923 0.288779
vt 0.343923 0.070615
vt 0.982747 0.538081
vt 0.982747 0.758131
vt 0.67742 0.758131
vt 0.67742 0.538418
vt 0.654372 0.535544
vt 0.654372 0.758215
vt 0.344166 0.758215
vt 0.344166 0.53575
vt 0.327407 0.537083
vt 0.327407 0.759706
vt 0.015414 0.759706
vt 0.015414 0.536937
vt 0.656108 0.299368
vt 0.656108 0.524271
vt 0.344171 0.524271
vt 0.344171 0.299368
vt 0.655295 0.77365
vt 0.655295 0.99382
vt 0.346502 0.99382
vt 0.346502 0.77365

# Normals
vn -1.0 0.0 0.0
vn -1.0 0.0 0.0
vn 0.0 0.0 -1.0
vn 0.0 0.0 -1.0
vn 1.0 0.0 0.0
vn 1.0 0.0 0.0
vn 0.0 -0.0 1.0
vn 0.0 0.0 1.0
vn 0.0 -1.0 0.0
vn 0.0 -1.0 0.0
vn 0.0 1.0 0.0
vn 0.0 1.0 -0.0

# Faces
f 1/1/1 2/2/1 4/3/1
f 1/1/2 4/3/2 3/4/2
f 3/5/3 4/6/3 8/7/3
f 3/5/4 8/7/4 7/8/4
f 7/9/5 8/10/5 6/11/5
f 7/9/6 6/11/6 5/12/6
f 5/13/7 6/14/7 2/15/7
f 5/13/8 2/15/8 1/16/8
f 3/17/9 7/18/9 5/19/9
f 3/17/10 5/19/10 1/20/10
f 8/21/11 4/22/11 2/23/11
f 8/21/12 2/23/12 6/24/12
